# xmcd
#
# Track frame offsets: 
#        150
#        16098
#        33777
#        52599
#        87345
#        106738
#        128655
#        159277
#        176441
#
# Disc length: 2776 seconds
#
# Revision: 0
# Processed by: cddbd v1.5.2PL0 Copyright (c) Steve Scherf et al.
# Submitted via: ExactAudioCopy v1.0b4
#
DISCID=520ad609
DTITLE=Joe Cocker - Live In L.A. (LP)
DYEAR=1976
DGENRE=Blues
TTITLE0=Dear Landlord
TTITLE1=Early In The Mornin'
TTITLE2=Didn't You Know You've Got To Cry Sometime?
TTITLE3=St. James Infirmary
TTITLE4=Hitchcock Railway
TTITLE5=Midnight Rider
TTITLE6=What Kind Of Man Are You?
TTITLE7=High Time We Went
TTITLE8=Love The One You're With
EXTD=
EXTT0=
EXTT1=
EXTT2=
EXTT3=
EXTT4=
EXTT5=
EXTT6=
EXTT7=
EXTT8=
PLAYORDER=
